<?xml version="1.0" encoding="UTF-8"?>
<svg xmlns="http://www.w3.org/2000/svg" width="82.2mm" height="82.2mm" viewBox="0 0 82.2 82.2">
  <title>StoryHunt alert sticker — https://storyhunt.city/scan</title>
  <defs>
    <style>@import url('https://fonts.googleapis.com/css2?family=Inter:wght@700;900&amp;family=Space+Mono:wght@700&amp;display=swap');</style>
    <radialGradient id="steel" cx="42%" cy="36%" r="68%">
      <stop offset="0%" stop-color="#3c424b"/><stop offset="55%" stop-color="#23272d"/><stop offset="100%" stop-color="#121419"/>
    </radialGradient>
    <clipPath id="disc"><circle cx="41.1" cy="41.1" r="38.1"/></clipPath>
    <pattern id="scan" width="6" height="1.5" patternUnits="userSpaceOnUse">
      <rect width="6" height="0.7" fill="#9e001f"/>
    </pattern>
    <filter id="glow" x="-40%" y="-60%" width="180%" height="220%">
      <feGaussianBlur stdDeviation="0.75" result="b"/>
      <feMerge><feMergeNode in="b"/><feMergeNode in="b"/></feMerge>
    </filter>
    <path id="arcTop" d="M 7.900,41.1 A 33.2,33.2 0 0,0 74.300,41.1"/>
    <path id="arcBot" d="M 7.900,41.1 A 33.2,33.2 0 0,1 74.300,41.1"/>
  </defs>

  <!-- flat red field + CRT scanline texture -->
  <circle cx="41.1" cy="41.1" r="41.1" fill="#ff0033"/>
  <rect x="0" y="0" width="82.2" height="82.2" fill="url(#scan)" clip-path="url(#disc)" opacity="0.45"/>

  <!-- black transmission bar (lower segment) -->
  <g clip-path="url(#disc)">
    <rect x="0" y="54.60" width="82.2" height="82.2" fill="#0a0a0a"/>
    <rect x="0" y="54.60" width="82.2" height="0.5" fill="#ffffff" opacity="0.5"/>
  </g>

  <!-- top hook: Inter 900, solid black -->
  <g font-family="'Inter','Arial Black',sans-serif" font-weight="900" font-size="5.4" letter-spacing="0.02" text-anchor="middle" fill="#0a0a0a">
    <text><textPath href="#arcBot" startOffset="50%" dy="4.0">NOT A TOUR · NOT A GAME</textPath></text>
  </g>

  <!-- ominous transmission line: glowing terminal green on black -->
  <g font-family="'Space Mono','Courier New',monospace" font-weight="700" text-anchor="middle">
    <text x="41.1" y="63.10" font-size="4.0" letter-spacing="0.12" fill="#ffffff">NYC IS TALKING TO YOU</text>
    <text x="41.1" y="69.60" font-size="2.4" letter-spacing="0.45" fill="#ff0033">STORYHUNT · NYC</text>
  </g>

  <rect x="24.60" y="19.60" width="33" height="33" rx="3.4" ry="3.4"
        fill="#ffffff" stroke="#0a0a0a" stroke-width="1.3"/>
  <rect x="25.70" y="20.70" width="30.8" height="30.8" rx="2.5" ry="2.5"
        fill="none" stroke="#0a0a0a" stroke-width="0.3" opacity="0.4"/>
  <g fill="#141110" shape-rendering="crispEdges">
      <rect x="28.100" y="23.100" width="0.808" height="0.808"/>
      <rect x="28.888" y="23.100" width="0.808" height="0.808"/>
      <rect x="29.676" y="23.100" width="0.808" height="0.808"/>
      <rect x="30.464" y="23.100" width="0.808" height="0.808"/>
      <rect x="31.252" y="23.100" width="0.808" height="0.808"/>
      <rect x="32.039" y="23.100" width="0.808" height="0.808"/>
      <rect x="32.827" y="23.100" width="0.808" height="0.808"/>
      <rect x="34.403" y="23.100" width="0.808" height="0.808"/>
      <rect x="35.191" y="23.100" width="0.808" height="0.808"/>
      <rect x="35.979" y="23.100" width="0.808" height="0.808"/>
      <rect x="39.130" y="23.100" width="0.808" height="0.808"/>
      <rect x="41.494" y="23.100" width="0.808" height="0.808"/>
      <rect x="44.645" y="23.100" width="0.808" height="0.808"/>
      <rect x="46.221" y="23.100" width="0.808" height="0.808"/>
      <rect x="47.009" y="23.100" width="0.808" height="0.808"/>
      <rect x="48.585" y="23.100" width="0.808" height="0.808"/>
      <rect x="49.373" y="23.100" width="0.808" height="0.808"/>
      <rect x="50.161" y="23.100" width="0.808" height="0.808"/>
      <rect x="50.948" y="23.100" width="0.808" height="0.808"/>
      <rect x="51.736" y="23.100" width="0.808" height="0.808"/>
      <rect x="52.524" y="23.100" width="0.808" height="0.808"/>
      <rect x="53.312" y="23.100" width="0.808" height="0.808"/>
      <rect x="28.100" y="23.888" width="0.808" height="0.808"/>
      <rect x="32.827" y="23.888" width="0.808" height="0.808"/>
      <rect x="34.403" y="23.888" width="0.808" height="0.808"/>
      <rect x="36.767" y="23.888" width="0.808" height="0.808"/>
      <rect x="40.706" y="23.888" width="0.808" height="0.808"/>
      <rect x="41.494" y="23.888" width="0.808" height="0.808"/>
      <rect x="42.282" y="23.888" width="0.808" height="0.808"/>
      <rect x="43.070" y="23.888" width="0.808" height="0.808"/>
      <rect x="44.645" y="23.888" width="0.808" height="0.808"/>
      <rect x="45.433" y="23.888" width="0.808" height="0.808"/>
      <rect x="47.009" y="23.888" width="0.808" height="0.808"/>
      <rect x="48.585" y="23.888" width="0.808" height="0.808"/>
      <rect x="53.312" y="23.888" width="0.808" height="0.808"/>
      <rect x="28.100" y="24.676" width="0.808" height="0.808"/>
      <rect x="29.676" y="24.676" width="0.808" height="0.808"/>
      <rect x="30.464" y="24.676" width="0.808" height="0.808"/>
      <rect x="31.252" y="24.676" width="0.808" height="0.808"/>
      <rect x="32.827" y="24.676" width="0.808" height="0.808"/>
      <rect x="34.403" y="24.676" width="0.808" height="0.808"/>
      <rect x="35.191" y="24.676" width="0.808" height="0.808"/>
      <rect x="36.767" y="24.676" width="0.808" height="0.808"/>
      <rect x="37.555" y="24.676" width="0.808" height="0.808"/>
      <rect x="38.342" y="24.676" width="0.808" height="0.808"/>
      <rect x="39.918" y="24.676" width="0.808" height="0.808"/>
      <rect x="40.706" y="24.676" width="0.808" height="0.808"/>
      <rect x="42.282" y="24.676" width="0.808" height="0.808"/>
      <rect x="44.645" y="24.676" width="0.808" height="0.808"/>
      <rect x="45.433" y="24.676" width="0.808" height="0.808"/>
      <rect x="46.221" y="24.676" width="0.808" height="0.808"/>
      <rect x="47.009" y="24.676" width="0.808" height="0.808"/>
      <rect x="48.585" y="24.676" width="0.808" height="0.808"/>
      <rect x="50.161" y="24.676" width="0.808" height="0.808"/>
      <rect x="50.948" y="24.676" width="0.808" height="0.808"/>
      <rect x="51.736" y="24.676" width="0.808" height="0.808"/>
      <rect x="53.312" y="24.676" width="0.808" height="0.808"/>
      <rect x="28.100" y="25.464" width="0.808" height="0.808"/>
      <rect x="29.676" y="25.464" width="0.808" height="0.808"/>
      <rect x="30.464" y="25.464" width="0.808" height="0.808"/>
      <rect x="31.252" y="25.464" width="0.808" height="0.808"/>
      <rect x="32.827" y="25.464" width="0.808" height="0.808"/>
      <rect x="35.191" y="25.464" width="0.808" height="0.808"/>
      <rect x="35.979" y="25.464" width="0.808" height="0.808"/>
      <rect x="39.130" y="25.464" width="0.808" height="0.808"/>
      <rect x="41.494" y="25.464" width="0.808" height="0.808"/>
      <rect x="42.282" y="25.464" width="0.808" height="0.808"/>
      <rect x="45.433" y="25.464" width="0.808" height="0.808"/>
      <rect x="46.221" y="25.464" width="0.808" height="0.808"/>
      <rect x="48.585" y="25.464" width="0.808" height="0.808"/>
      <rect x="50.161" y="25.464" width="0.808" height="0.808"/>
      <rect x="50.948" y="25.464" width="0.808" height="0.808"/>
      <rect x="51.736" y="25.464" width="0.808" height="0.808"/>
      <rect x="53.312" y="25.464" width="0.808" height="0.808"/>
      <rect x="28.100" y="26.252" width="0.808" height="0.808"/>
      <rect x="29.676" y="26.252" width="0.808" height="0.808"/>
      <rect x="30.464" y="26.252" width="0.808" height="0.808"/>
      <rect x="31.252" y="26.252" width="0.808" height="0.808"/>
      <rect x="32.827" y="26.252" width="0.808" height="0.808"/>
      <rect x="35.191" y="26.252" width="0.808" height="0.808"/>
      <rect x="35.979" y="26.252" width="0.808" height="0.808"/>
      <rect x="37.555" y="26.252" width="0.808" height="0.808"/>
      <rect x="38.342" y="26.252" width="0.808" height="0.808"/>
      <rect x="39.130" y="26.252" width="0.808" height="0.808"/>
      <rect x="39.918" y="26.252" width="0.808" height="0.808"/>
      <rect x="43.858" y="26.252" width="0.808" height="0.808"/>
      <rect x="44.645" y="26.252" width="0.808" height="0.808"/>
      <rect x="47.009" y="26.252" width="0.808" height="0.808"/>
      <rect x="48.585" y="26.252" width="0.808" height="0.808"/>
      <rect x="50.161" y="26.252" width="0.808" height="0.808"/>
      <rect x="50.948" y="26.252" width="0.808" height="0.808"/>
      <rect x="51.736" y="26.252" width="0.808" height="0.808"/>
      <rect x="53.312" y="26.252" width="0.808" height="0.808"/>
      <rect x="28.100" y="27.039" width="0.808" height="0.808"/>
      <rect x="32.827" y="27.039" width="0.808" height="0.808"/>
      <rect x="34.403" y="27.039" width="0.808" height="0.808"/>
      <rect x="38.342" y="27.039" width="0.808" height="0.808"/>
      <rect x="39.130" y="27.039" width="0.808" height="0.808"/>
      <rect x="41.494" y="27.039" width="0.808" height="0.808"/>
      <rect x="43.070" y="27.039" width="0.808" height="0.808"/>
      <rect x="48.585" y="27.039" width="0.808" height="0.808"/>
      <rect x="53.312" y="27.039" width="0.808" height="0.808"/>
      <rect x="28.100" y="27.827" width="0.808" height="0.808"/>
      <rect x="28.888" y="27.827" width="0.808" height="0.808"/>
      <rect x="29.676" y="27.827" width="0.808" height="0.808"/>
      <rect x="30.464" y="27.827" width="0.808" height="0.808"/>
      <rect x="31.252" y="27.827" width="0.808" height="0.808"/>
      <rect x="32.039" y="27.827" width="0.808" height="0.808"/>
      <rect x="32.827" y="27.827" width="0.808" height="0.808"/>
      <rect x="34.403" y="27.827" width="0.808" height="0.808"/>
      <rect x="35.979" y="27.827" width="0.808" height="0.808"/>
      <rect x="37.555" y="27.827" width="0.808" height="0.808"/>
      <rect x="39.130" y="27.827" width="0.808" height="0.808"/>
      <rect x="40.706" y="27.827" width="0.808" height="0.808"/>
      <rect x="42.282" y="27.827" width="0.808" height="0.808"/>
      <rect x="43.858" y="27.827" width="0.808" height="0.808"/>
      <rect x="45.433" y="27.827" width="0.808" height="0.808"/>
      <rect x="47.009" y="27.827" width="0.808" height="0.808"/>
      <rect x="48.585" y="27.827" width="0.808" height="0.808"/>
      <rect x="49.373" y="27.827" width="0.808" height="0.808"/>
      <rect x="50.161" y="27.827" width="0.808" height="0.808"/>
      <rect x="50.948" y="27.827" width="0.808" height="0.808"/>
      <rect x="51.736" y="27.827" width="0.808" height="0.808"/>
      <rect x="52.524" y="27.827" width="0.808" height="0.808"/>
      <rect x="53.312" y="27.827" width="0.808" height="0.808"/>
      <rect x="34.403" y="28.615" width="0.808" height="0.808"/>
      <rect x="35.191" y="28.615" width="0.808" height="0.808"/>
      <rect x="35.979" y="28.615" width="0.808" height="0.808"/>
      <rect x="37.555" y="28.615" width="0.808" height="0.808"/>
      <rect x="39.130" y="28.615" width="0.808" height="0.808"/>
      <rect x="39.918" y="28.615" width="0.808" height="0.808"/>
      <rect x="41.494" y="28.615" width="0.808" height="0.808"/>
      <rect x="43.070" y="28.615" width="0.808" height="0.808"/>
      <rect x="43.858" y="28.615" width="0.808" height="0.808"/>
      <rect x="44.645" y="28.615" width="0.808" height="0.808"/>
      <rect x="45.433" y="28.615" width="0.808" height="0.808"/>
      <rect x="47.009" y="28.615" width="0.808" height="0.808"/>
      <rect x="29.676" y="29.403" width="0.808" height="0.808"/>
      <rect x="30.464" y="29.403" width="0.808" height="0.808"/>
      <rect x="31.252" y="29.403" width="0.808" height="0.808"/>
      <rect x="32.827" y="29.403" width="0.808" height="0.808"/>
      <rect x="34.403" y="29.403" width="0.808" height="0.808"/>
      <rect x="35.191" y="29.403" width="0.808" height="0.808"/>
      <rect x="40.706" y="29.403" width="0.808" height="0.808"/>
      <rect x="41.494" y="29.403" width="0.808" height="0.808"/>
      <rect x="43.070" y="29.403" width="0.808" height="0.808"/>
      <rect x="43.858" y="29.403" width="0.808" height="0.808"/>
      <rect x="45.433" y="29.403" width="0.808" height="0.808"/>
      <rect x="47.797" y="29.403" width="0.808" height="0.808"/>
      <rect x="48.585" y="29.403" width="0.808" height="0.808"/>
      <rect x="49.373" y="29.403" width="0.808" height="0.808"/>
      <rect x="51.736" y="29.403" width="0.808" height="0.808"/>
      <rect x="52.524" y="29.403" width="0.808" height="0.808"/>
      <rect x="53.312" y="29.403" width="0.808" height="0.808"/>
      <rect x="28.100" y="30.191" width="0.808" height="0.808"/>
      <rect x="28.888" y="30.191" width="0.808" height="0.808"/>
      <rect x="29.676" y="30.191" width="0.808" height="0.808"/>
      <rect x="32.039" y="30.191" width="0.808" height="0.808"/>
      <rect x="35.191" y="30.191" width="0.808" height="0.808"/>
      <rect x="35.979" y="30.191" width="0.808" height="0.808"/>
      <rect x="39.130" y="30.191" width="0.808" height="0.808"/>
      <rect x="39.918" y="30.191" width="0.808" height="0.808"/>
      <rect x="40.706" y="30.191" width="0.808" height="0.808"/>
      <rect x="41.494" y="30.191" width="0.808" height="0.808"/>
      <rect x="43.070" y="30.191" width="0.808" height="0.808"/>
      <rect x="46.221" y="30.191" width="0.808" height="0.808"/>
      <rect x="47.797" y="30.191" width="0.808" height="0.808"/>
      <rect x="48.585" y="30.191" width="0.808" height="0.808"/>
      <rect x="50.948" y="30.191" width="0.808" height="0.808"/>
      <rect x="52.524" y="30.191" width="0.808" height="0.808"/>
      <rect x="53.312" y="30.191" width="0.808" height="0.808"/>
      <rect x="28.888" y="30.979" width="0.808" height="0.808"/>
      <rect x="29.676" y="30.979" width="0.808" height="0.808"/>
      <rect x="30.464" y="30.979" width="0.808" height="0.808"/>
      <rect x="31.252" y="30.979" width="0.808" height="0.808"/>
      <rect x="32.039" y="30.979" width="0.808" height="0.808"/>
      <rect x="32.827" y="30.979" width="0.808" height="0.808"/>
      <rect x="35.191" y="30.979" width="0.808" height="0.808"/>
      <rect x="37.555" y="30.979" width="0.808" height="0.808"/>
      <rect x="38.342" y="30.979" width="0.808" height="0.808"/>
      <rect x="39.130" y="30.979" width="0.808" height="0.808"/>
      <rect x="39.918" y="30.979" width="0.808" height="0.808"/>
      <rect x="40.706" y="30.979" width="0.808" height="0.808"/>
      <rect x="41.494" y="30.979" width="0.808" height="0.808"/>
      <rect x="42.282" y="30.979" width="0.808" height="0.808"/>
      <rect x="43.070" y="30.979" width="0.808" height="0.808"/>
      <rect x="43.858" y="30.979" width="0.808" height="0.808"/>
      <rect x="45.433" y="30.979" width="0.808" height="0.808"/>
      <rect x="49.373" y="30.979" width="0.808" height="0.808"/>
      <rect x="52.524" y="30.979" width="0.808" height="0.808"/>
      <rect x="28.100" y="31.767" width="0.808" height="0.808"/>
      <rect x="28.888" y="31.767" width="0.808" height="0.808"/>
      <rect x="29.676" y="31.767" width="0.808" height="0.808"/>
      <rect x="31.252" y="31.767" width="0.808" height="0.808"/>
      <rect x="32.039" y="31.767" width="0.808" height="0.808"/>
      <rect x="35.191" y="31.767" width="0.808" height="0.808"/>
      <rect x="37.555" y="31.767" width="0.808" height="0.808"/>
      <rect x="42.282" y="31.767" width="0.808" height="0.808"/>
      <rect x="43.858" y="31.767" width="0.808" height="0.808"/>
      <rect x="46.221" y="31.767" width="0.808" height="0.808"/>
      <rect x="48.585" y="31.767" width="0.808" height="0.808"/>
      <rect x="50.948" y="31.767" width="0.808" height="0.808"/>
      <rect x="51.736" y="31.767" width="0.808" height="0.808"/>
      <rect x="52.524" y="31.767" width="0.808" height="0.808"/>
      <rect x="53.312" y="31.767" width="0.808" height="0.808"/>
      <rect x="28.100" y="32.555" width="0.808" height="0.808"/>
      <rect x="28.888" y="32.555" width="0.808" height="0.808"/>
      <rect x="29.676" y="32.555" width="0.808" height="0.808"/>
      <rect x="30.464" y="32.555" width="0.808" height="0.808"/>
      <rect x="32.827" y="32.555" width="0.808" height="0.808"/>
      <rect x="33.615" y="32.555" width="0.808" height="0.808"/>
      <rect x="35.191" y="32.555" width="0.808" height="0.808"/>
      <rect x="35.979" y="32.555" width="0.808" height="0.808"/>
      <rect x="37.555" y="32.555" width="0.808" height="0.808"/>
      <rect x="39.130" y="32.555" width="0.808" height="0.808"/>
      <rect x="40.706" y="32.555" width="0.808" height="0.808"/>
      <rect x="42.282" y="32.555" width="0.808" height="0.808"/>
      <rect x="43.070" y="32.555" width="0.808" height="0.808"/>
      <rect x="43.858" y="32.555" width="0.808" height="0.808"/>
      <rect x="44.645" y="32.555" width="0.808" height="0.808"/>
      <rect x="45.433" y="32.555" width="0.808" height="0.808"/>
      <rect x="46.221" y="32.555" width="0.808" height="0.808"/>
      <rect x="47.797" y="32.555" width="0.808" height="0.808"/>
      <rect x="49.373" y="32.555" width="0.808" height="0.808"/>
      <rect x="30.464" y="33.342" width="0.808" height="0.808"/>
      <rect x="31.252" y="33.342" width="0.808" height="0.808"/>
      <rect x="33.615" y="33.342" width="0.808" height="0.808"/>
      <rect x="35.979" y="33.342" width="0.808" height="0.808"/>
      <rect x="37.555" y="33.342" width="0.808" height="0.808"/>
      <rect x="40.706" y="33.342" width="0.808" height="0.808"/>
      <rect x="43.070" y="33.342" width="0.808" height="0.808"/>
      <rect x="46.221" y="33.342" width="0.808" height="0.808"/>
      <rect x="47.797" y="33.342" width="0.808" height="0.808"/>
      <rect x="48.585" y="33.342" width="0.808" height="0.808"/>
      <rect x="50.161" y="33.342" width="0.808" height="0.808"/>
      <rect x="50.948" y="33.342" width="0.808" height="0.808"/>
      <rect x="53.312" y="33.342" width="0.808" height="0.808"/>
      <rect x="28.888" y="34.130" width="0.808" height="0.808"/>
      <rect x="30.464" y="34.130" width="0.808" height="0.808"/>
      <rect x="31.252" y="34.130" width="0.808" height="0.808"/>
      <rect x="32.827" y="34.130" width="0.808" height="0.808"/>
      <rect x="36.767" y="34.130" width="0.808" height="0.808"/>
      <rect x="37.555" y="34.130" width="0.808" height="0.808"/>
      <rect x="39.130" y="34.130" width="0.808" height="0.808"/>
      <rect x="39.918" y="34.130" width="0.808" height="0.808"/>
      <rect x="42.282" y="34.130" width="0.808" height="0.808"/>
      <rect x="43.070" y="34.130" width="0.808" height="0.808"/>
      <rect x="45.433" y="34.130" width="0.808" height="0.808"/>
      <rect x="47.009" y="34.130" width="0.808" height="0.808"/>
      <rect x="47.797" y="34.130" width="0.808" height="0.808"/>
      <rect x="49.373" y="34.130" width="0.808" height="0.808"/>
      <rect x="50.161" y="34.130" width="0.808" height="0.808"/>
      <rect x="52.524" y="34.130" width="0.808" height="0.808"/>
      <rect x="28.100" y="34.918" width="0.808" height="0.808"/>
      <rect x="30.464" y="34.918" width="0.808" height="0.808"/>
      <rect x="31.252" y="34.918" width="0.808" height="0.808"/>
      <rect x="32.039" y="34.918" width="0.808" height="0.808"/>
      <rect x="33.615" y="34.918" width="0.808" height="0.808"/>
      <rect x="35.979" y="34.918" width="0.808" height="0.808"/>
      <rect x="39.130" y="34.918" width="0.808" height="0.808"/>
      <rect x="40.706" y="34.918" width="0.808" height="0.808"/>
      <rect x="41.494" y="34.918" width="0.808" height="0.808"/>
      <rect x="42.282" y="34.918" width="0.808" height="0.808"/>
      <rect x="44.645" y="34.918" width="0.808" height="0.808"/>
      <rect x="45.433" y="34.918" width="0.808" height="0.808"/>
      <rect x="47.009" y="34.918" width="0.808" height="0.808"/>
      <rect x="50.161" y="34.918" width="0.808" height="0.808"/>
      <rect x="51.736" y="34.918" width="0.808" height="0.808"/>
      <rect x="52.524" y="34.918" width="0.808" height="0.808"/>
      <rect x="53.312" y="34.918" width="0.808" height="0.808"/>
      <rect x="28.888" y="35.706" width="0.808" height="0.808"/>
      <rect x="30.464" y="35.706" width="0.808" height="0.808"/>
      <rect x="32.039" y="35.706" width="0.808" height="0.808"/>
      <rect x="32.827" y="35.706" width="0.808" height="0.808"/>
      <rect x="34.403" y="35.706" width="0.808" height="0.808"/>
      <rect x="35.191" y="35.706" width="0.808" height="0.808"/>
      <rect x="35.979" y="35.706" width="0.808" height="0.808"/>
      <rect x="37.555" y="35.706" width="0.808" height="0.808"/>
      <rect x="39.130" y="35.706" width="0.808" height="0.808"/>
      <rect x="39.918" y="35.706" width="0.808" height="0.808"/>
      <rect x="41.494" y="35.706" width="0.808" height="0.808"/>
      <rect x="43.070" y="35.706" width="0.808" height="0.808"/>
      <rect x="43.858" y="35.706" width="0.808" height="0.808"/>
      <rect x="46.221" y="35.706" width="0.808" height="0.808"/>
      <rect x="47.797" y="35.706" width="0.808" height="0.808"/>
      <rect x="50.161" y="35.706" width="0.808" height="0.808"/>
      <rect x="51.736" y="35.706" width="0.808" height="0.808"/>
      <rect x="53.312" y="35.706" width="0.808" height="0.808"/>
      <rect x="29.676" y="36.494" width="0.808" height="0.808"/>
      <rect x="31.252" y="36.494" width="0.808" height="0.808"/>
      <rect x="34.403" y="36.494" width="0.808" height="0.808"/>
      <rect x="36.767" y="36.494" width="0.808" height="0.808"/>
      <rect x="37.555" y="36.494" width="0.808" height="0.808"/>
      <rect x="39.130" y="36.494" width="0.808" height="0.808"/>
      <rect x="39.918" y="36.494" width="0.808" height="0.808"/>
      <rect x="42.282" y="36.494" width="0.808" height="0.808"/>
      <rect x="43.858" y="36.494" width="0.808" height="0.808"/>
      <rect x="46.221" y="36.494" width="0.808" height="0.808"/>
      <rect x="47.009" y="36.494" width="0.808" height="0.808"/>
      <rect x="47.797" y="36.494" width="0.808" height="0.808"/>
      <rect x="48.585" y="36.494" width="0.808" height="0.808"/>
      <rect x="53.312" y="36.494" width="0.808" height="0.808"/>
      <rect x="29.676" y="37.282" width="0.808" height="0.808"/>
      <rect x="32.827" y="37.282" width="0.808" height="0.808"/>
      <rect x="33.615" y="37.282" width="0.808" height="0.808"/>
      <rect x="36.767" y="37.282" width="0.808" height="0.808"/>
      <rect x="38.342" y="37.282" width="0.808" height="0.808"/>
      <rect x="39.918" y="37.282" width="0.808" height="0.808"/>
      <rect x="40.706" y="37.282" width="0.808" height="0.808"/>
      <rect x="43.070" y="37.282" width="0.808" height="0.808"/>
      <rect x="43.858" y="37.282" width="0.808" height="0.808"/>
      <rect x="45.433" y="37.282" width="0.808" height="0.808"/>
      <rect x="51.736" y="37.282" width="0.808" height="0.808"/>
      <rect x="52.524" y="37.282" width="0.808" height="0.808"/>
      <rect x="29.676" y="38.070" width="0.808" height="0.808"/>
      <rect x="30.464" y="38.070" width="0.808" height="0.808"/>
      <rect x="31.252" y="38.070" width="0.808" height="0.808"/>
      <rect x="32.039" y="38.070" width="0.808" height="0.808"/>
      <rect x="33.615" y="38.070" width="0.808" height="0.808"/>
      <rect x="34.403" y="38.070" width="0.808" height="0.808"/>
      <rect x="35.979" y="38.070" width="0.808" height="0.808"/>
      <rect x="37.555" y="38.070" width="0.808" height="0.808"/>
      <rect x="39.918" y="38.070" width="0.808" height="0.808"/>
      <rect x="40.706" y="38.070" width="0.808" height="0.808"/>
      <rect x="42.282" y="38.070" width="0.808" height="0.808"/>
      <rect x="44.645" y="38.070" width="0.808" height="0.808"/>
      <rect x="46.221" y="38.070" width="0.808" height="0.808"/>
      <rect x="47.009" y="38.070" width="0.808" height="0.808"/>
      <rect x="47.797" y="38.070" width="0.808" height="0.808"/>
      <rect x="49.373" y="38.070" width="0.808" height="0.808"/>
      <rect x="50.161" y="38.070" width="0.808" height="0.808"/>
      <rect x="50.948" y="38.070" width="0.808" height="0.808"/>
      <rect x="51.736" y="38.070" width="0.808" height="0.808"/>
      <rect x="52.524" y="38.070" width="0.808" height="0.808"/>
      <rect x="30.464" y="38.858" width="0.808" height="0.808"/>
      <rect x="31.252" y="38.858" width="0.808" height="0.808"/>
      <rect x="32.039" y="38.858" width="0.808" height="0.808"/>
      <rect x="32.827" y="38.858" width="0.808" height="0.808"/>
      <rect x="37.555" y="38.858" width="0.808" height="0.808"/>
      <rect x="39.130" y="38.858" width="0.808" height="0.808"/>
      <rect x="39.918" y="38.858" width="0.808" height="0.808"/>
      <rect x="40.706" y="38.858" width="0.808" height="0.808"/>
      <rect x="43.070" y="38.858" width="0.808" height="0.808"/>
      <rect x="43.858" y="38.858" width="0.808" height="0.808"/>
      <rect x="45.433" y="38.858" width="0.808" height="0.808"/>
      <rect x="47.009" y="38.858" width="0.808" height="0.808"/>
      <rect x="50.161" y="38.858" width="0.808" height="0.808"/>
      <rect x="50.948" y="38.858" width="0.808" height="0.808"/>
      <rect x="28.100" y="39.645" width="0.808" height="0.808"/>
      <rect x="30.464" y="39.645" width="0.808" height="0.808"/>
      <rect x="31.252" y="39.645" width="0.808" height="0.808"/>
      <rect x="32.039" y="39.645" width="0.808" height="0.808"/>
      <rect x="35.191" y="39.645" width="0.808" height="0.808"/>
      <rect x="36.767" y="39.645" width="0.808" height="0.808"/>
      <rect x="37.555" y="39.645" width="0.808" height="0.808"/>
      <rect x="38.342" y="39.645" width="0.808" height="0.808"/>
      <rect x="39.918" y="39.645" width="0.808" height="0.808"/>
      <rect x="40.706" y="39.645" width="0.808" height="0.808"/>
      <rect x="43.858" y="39.645" width="0.808" height="0.808"/>
      <rect x="44.645" y="39.645" width="0.808" height="0.808"/>
      <rect x="45.433" y="39.645" width="0.808" height="0.808"/>
      <rect x="47.797" y="39.645" width="0.808" height="0.808"/>
      <rect x="50.948" y="39.645" width="0.808" height="0.808"/>
      <rect x="51.736" y="39.645" width="0.808" height="0.808"/>
      <rect x="53.312" y="39.645" width="0.808" height="0.808"/>
      <rect x="28.100" y="40.433" width="0.808" height="0.808"/>
      <rect x="32.827" y="40.433" width="0.808" height="0.808"/>
      <rect x="36.767" y="40.433" width="0.808" height="0.808"/>
      <rect x="39.130" y="40.433" width="0.808" height="0.808"/>
      <rect x="43.070" y="40.433" width="0.808" height="0.808"/>
      <rect x="43.858" y="40.433" width="0.808" height="0.808"/>
      <rect x="46.221" y="40.433" width="0.808" height="0.808"/>
      <rect x="47.009" y="40.433" width="0.808" height="0.808"/>
      <rect x="50.161" y="40.433" width="0.808" height="0.808"/>
      <rect x="51.736" y="40.433" width="0.808" height="0.808"/>
      <rect x="28.100" y="41.221" width="0.808" height="0.808"/>
      <rect x="29.676" y="41.221" width="0.808" height="0.808"/>
      <rect x="30.464" y="41.221" width="0.808" height="0.808"/>
      <rect x="32.039" y="41.221" width="0.808" height="0.808"/>
      <rect x="33.615" y="41.221" width="0.808" height="0.808"/>
      <rect x="35.979" y="41.221" width="0.808" height="0.808"/>
      <rect x="38.342" y="41.221" width="0.808" height="0.808"/>
      <rect x="39.918" y="41.221" width="0.808" height="0.808"/>
      <rect x="40.706" y="41.221" width="0.808" height="0.808"/>
      <rect x="41.494" y="41.221" width="0.808" height="0.808"/>
      <rect x="43.858" y="41.221" width="0.808" height="0.808"/>
      <rect x="44.645" y="41.221" width="0.808" height="0.808"/>
      <rect x="45.433" y="41.221" width="0.808" height="0.808"/>
      <rect x="46.221" y="41.221" width="0.808" height="0.808"/>
      <rect x="50.161" y="41.221" width="0.808" height="0.808"/>
      <rect x="50.948" y="41.221" width="0.808" height="0.808"/>
      <rect x="51.736" y="41.221" width="0.808" height="0.808"/>
      <rect x="28.100" y="42.009" width="0.808" height="0.808"/>
      <rect x="31.252" y="42.009" width="0.808" height="0.808"/>
      <rect x="32.827" y="42.009" width="0.808" height="0.808"/>
      <rect x="36.767" y="42.009" width="0.808" height="0.808"/>
      <rect x="37.555" y="42.009" width="0.808" height="0.808"/>
      <rect x="41.494" y="42.009" width="0.808" height="0.808"/>
      <rect x="43.858" y="42.009" width="0.808" height="0.808"/>
      <rect x="45.433" y="42.009" width="0.808" height="0.808"/>
      <rect x="46.221" y="42.009" width="0.808" height="0.808"/>
      <rect x="47.009" y="42.009" width="0.808" height="0.808"/>
      <rect x="47.797" y="42.009" width="0.808" height="0.808"/>
      <rect x="48.585" y="42.009" width="0.808" height="0.808"/>
      <rect x="49.373" y="42.009" width="0.808" height="0.808"/>
      <rect x="50.161" y="42.009" width="0.808" height="0.808"/>
      <rect x="52.524" y="42.009" width="0.808" height="0.808"/>
      <rect x="34.403" y="42.797" width="0.808" height="0.808"/>
      <rect x="35.191" y="42.797" width="0.808" height="0.808"/>
      <rect x="36.767" y="42.797" width="0.808" height="0.808"/>
      <rect x="39.130" y="42.797" width="0.808" height="0.808"/>
      <rect x="39.918" y="42.797" width="0.808" height="0.808"/>
      <rect x="41.494" y="42.797" width="0.808" height="0.808"/>
      <rect x="42.282" y="42.797" width="0.808" height="0.808"/>
      <rect x="44.645" y="42.797" width="0.808" height="0.808"/>
      <rect x="47.009" y="42.797" width="0.808" height="0.808"/>
      <rect x="50.161" y="42.797" width="0.808" height="0.808"/>
      <rect x="51.736" y="42.797" width="0.808" height="0.808"/>
      <rect x="52.524" y="42.797" width="0.808" height="0.808"/>
      <rect x="53.312" y="42.797" width="0.808" height="0.808"/>
      <rect x="28.100" y="43.585" width="0.808" height="0.808"/>
      <rect x="28.888" y="43.585" width="0.808" height="0.808"/>
      <rect x="29.676" y="43.585" width="0.808" height="0.808"/>
      <rect x="30.464" y="43.585" width="0.808" height="0.808"/>
      <rect x="31.252" y="43.585" width="0.808" height="0.808"/>
      <rect x="32.039" y="43.585" width="0.808" height="0.808"/>
      <rect x="32.827" y="43.585" width="0.808" height="0.808"/>
      <rect x="35.979" y="43.585" width="0.808" height="0.808"/>
      <rect x="38.342" y="43.585" width="0.808" height="0.808"/>
      <rect x="39.130" y="43.585" width="0.808" height="0.808"/>
      <rect x="39.918" y="43.585" width="0.808" height="0.808"/>
      <rect x="40.706" y="43.585" width="0.808" height="0.808"/>
      <rect x="41.494" y="43.585" width="0.808" height="0.808"/>
      <rect x="43.858" y="43.585" width="0.808" height="0.808"/>
      <rect x="44.645" y="43.585" width="0.808" height="0.808"/>
      <rect x="46.221" y="43.585" width="0.808" height="0.808"/>
      <rect x="47.009" y="43.585" width="0.808" height="0.808"/>
      <rect x="48.585" y="43.585" width="0.808" height="0.808"/>
      <rect x="50.161" y="43.585" width="0.808" height="0.808"/>
      <rect x="50.948" y="43.585" width="0.808" height="0.808"/>
      <rect x="52.524" y="43.585" width="0.808" height="0.808"/>
      <rect x="28.100" y="44.373" width="0.808" height="0.808"/>
      <rect x="32.827" y="44.373" width="0.808" height="0.808"/>
      <rect x="35.191" y="44.373" width="0.808" height="0.808"/>
      <rect x="35.979" y="44.373" width="0.808" height="0.808"/>
      <rect x="38.342" y="44.373" width="0.808" height="0.808"/>
      <rect x="39.918" y="44.373" width="0.808" height="0.808"/>
      <rect x="40.706" y="44.373" width="0.808" height="0.808"/>
      <rect x="41.494" y="44.373" width="0.808" height="0.808"/>
      <rect x="43.858" y="44.373" width="0.808" height="0.808"/>
      <rect x="44.645" y="44.373" width="0.808" height="0.808"/>
      <rect x="45.433" y="44.373" width="0.808" height="0.808"/>
      <rect x="47.009" y="44.373" width="0.808" height="0.808"/>
      <rect x="50.161" y="44.373" width="0.808" height="0.808"/>
      <rect x="50.948" y="44.373" width="0.808" height="0.808"/>
      <rect x="51.736" y="44.373" width="0.808" height="0.808"/>
      <rect x="52.524" y="44.373" width="0.808" height="0.808"/>
      <rect x="53.312" y="44.373" width="0.808" height="0.808"/>
      <rect x="28.100" y="45.161" width="0.808" height="0.808"/>
      <rect x="29.676" y="45.161" width="0.808" height="0.808"/>
      <rect x="30.464" y="45.161" width="0.808" height="0.808"/>
      <rect x="31.252" y="45.161" width="0.808" height="0.808"/>
      <rect x="32.827" y="45.161" width="0.808" height="0.808"/>
      <rect x="34.403" y="45.161" width="0.808" height="0.808"/>
      <rect x="35.191" y="45.161" width="0.808" height="0.808"/>
      <rect x="35.979" y="45.161" width="0.808" height="0.808"/>
      <rect x="37.555" y="45.161" width="0.808" height="0.808"/>
      <rect x="39.130" y="45.161" width="0.808" height="0.808"/>
      <rect x="41.494" y="45.161" width="0.808" height="0.808"/>
      <rect x="42.282" y="45.161" width="0.808" height="0.808"/>
      <rect x="43.070" y="45.161" width="0.808" height="0.808"/>
      <rect x="44.645" y="45.161" width="0.808" height="0.808"/>
      <rect x="47.009" y="45.161" width="0.808" height="0.808"/>
      <rect x="47.797" y="45.161" width="0.808" height="0.808"/>
      <rect x="48.585" y="45.161" width="0.808" height="0.808"/>
      <rect x="49.373" y="45.161" width="0.808" height="0.808"/>
      <rect x="50.161" y="45.161" width="0.808" height="0.808"/>
      <rect x="52.524" y="45.161" width="0.808" height="0.808"/>
      <rect x="53.312" y="45.161" width="0.808" height="0.808"/>
      <rect x="28.100" y="45.948" width="0.808" height="0.808"/>
      <rect x="29.676" y="45.948" width="0.808" height="0.808"/>
      <rect x="30.464" y="45.948" width="0.808" height="0.808"/>
      <rect x="31.252" y="45.948" width="0.808" height="0.808"/>
      <rect x="32.827" y="45.948" width="0.808" height="0.808"/>
      <rect x="34.403" y="45.948" width="0.808" height="0.808"/>
      <rect x="37.555" y="45.948" width="0.808" height="0.808"/>
      <rect x="39.918" y="45.948" width="0.808" height="0.808"/>
      <rect x="43.070" y="45.948" width="0.808" height="0.808"/>
      <rect x="43.858" y="45.948" width="0.808" height="0.808"/>
      <rect x="45.433" y="45.948" width="0.808" height="0.808"/>
      <rect x="46.221" y="45.948" width="0.808" height="0.808"/>
      <rect x="47.009" y="45.948" width="0.808" height="0.808"/>
      <rect x="47.797" y="45.948" width="0.808" height="0.808"/>
      <rect x="50.161" y="45.948" width="0.808" height="0.808"/>
      <rect x="51.736" y="45.948" width="0.808" height="0.808"/>
      <rect x="52.524" y="45.948" width="0.808" height="0.808"/>
      <rect x="28.100" y="46.736" width="0.808" height="0.808"/>
      <rect x="29.676" y="46.736" width="0.808" height="0.808"/>
      <rect x="30.464" y="46.736" width="0.808" height="0.808"/>
      <rect x="31.252" y="46.736" width="0.808" height="0.808"/>
      <rect x="32.827" y="46.736" width="0.808" height="0.808"/>
      <rect x="34.403" y="46.736" width="0.808" height="0.808"/>
      <rect x="38.342" y="46.736" width="0.808" height="0.808"/>
      <rect x="39.918" y="46.736" width="0.808" height="0.808"/>
      <rect x="40.706" y="46.736" width="0.808" height="0.808"/>
      <rect x="43.070" y="46.736" width="0.808" height="0.808"/>
      <rect x="43.858" y="46.736" width="0.808" height="0.808"/>
      <rect x="45.433" y="46.736" width="0.808" height="0.808"/>
      <rect x="47.797" y="46.736" width="0.808" height="0.808"/>
      <rect x="48.585" y="46.736" width="0.808" height="0.808"/>
      <rect x="51.736" y="46.736" width="0.808" height="0.808"/>
      <rect x="28.100" y="47.524" width="0.808" height="0.808"/>
      <rect x="32.827" y="47.524" width="0.808" height="0.808"/>
      <rect x="37.555" y="47.524" width="0.808" height="0.808"/>
      <rect x="40.706" y="47.524" width="0.808" height="0.808"/>
      <rect x="41.494" y="47.524" width="0.808" height="0.808"/>
      <rect x="42.282" y="47.524" width="0.808" height="0.808"/>
      <rect x="43.070" y="47.524" width="0.808" height="0.808"/>
      <rect x="43.858" y="47.524" width="0.808" height="0.808"/>
      <rect x="44.645" y="47.524" width="0.808" height="0.808"/>
      <rect x="45.433" y="47.524" width="0.808" height="0.808"/>
      <rect x="48.585" y="47.524" width="0.808" height="0.808"/>
      <rect x="49.373" y="47.524" width="0.808" height="0.808"/>
      <rect x="51.736" y="47.524" width="0.808" height="0.808"/>
      <rect x="28.100" y="48.312" width="0.808" height="0.808"/>
      <rect x="28.888" y="48.312" width="0.808" height="0.808"/>
      <rect x="29.676" y="48.312" width="0.808" height="0.808"/>
      <rect x="30.464" y="48.312" width="0.808" height="0.808"/>
      <rect x="31.252" y="48.312" width="0.808" height="0.808"/>
      <rect x="32.039" y="48.312" width="0.808" height="0.808"/>
      <rect x="32.827" y="48.312" width="0.808" height="0.808"/>
      <rect x="35.191" y="48.312" width="0.808" height="0.808"/>
      <rect x="36.767" y="48.312" width="0.808" height="0.808"/>
      <rect x="37.555" y="48.312" width="0.808" height="0.808"/>
      <rect x="39.130" y="48.312" width="0.808" height="0.808"/>
      <rect x="39.918" y="48.312" width="0.808" height="0.808"/>
      <rect x="40.706" y="48.312" width="0.808" height="0.808"/>
      <rect x="43.070" y="48.312" width="0.808" height="0.808"/>
      <rect x="43.858" y="48.312" width="0.808" height="0.808"/>
      <rect x="45.433" y="48.312" width="0.808" height="0.808"/>
      <rect x="46.221" y="48.312" width="0.808" height="0.808"/>
      <rect x="47.009" y="48.312" width="0.808" height="0.808"/>
      <rect x="47.797" y="48.312" width="0.808" height="0.808"/>
      <rect x="51.736" y="48.312" width="0.808" height="0.808"/>
      <rect x="52.524" y="48.312" width="0.808" height="0.808"/>
  </g>
  <rect x="31.10" y="13.80" width="20" height="5.8" rx="2.9" ry="2.9" fill="#0a0a0a"/>
  <text x="41.1" y="18.05" text-anchor="middle" font-family="'Space Mono','Courier New',monospace" font-weight="700"
        font-size="3.4" letter-spacing="0.25" fill="#ffffff">▶ SCAN</text>
  <circle id="cut-line" cx="41.1" cy="41.1" r="38.1" fill="none" stroke="#ff00ff" stroke-width="0.2" stroke-dasharray="1.2 1.2" opacity="0.0"/>
</svg>
